G04 #@! TF.GenerationSoftware,KiCad,Pcbnew,(5.1.5)-3*
G04 #@! TF.CreationDate,2020-05-15T06:38:26+02:00*
G04 #@! TF.ProjectId,Frequency Mixer,46726571-7565-46e6-9379-204d69786572,rev?*
G04 #@! TF.SameCoordinates,Original*
G04 #@! TF.FileFunction,Copper,L2,Bot*
G04 #@! TF.FilePolarity,Positive*
%FSLAX46Y46*%
G04 Gerber Fmt 4.6, Leading zero omitted, Abs format (unit mm)*
G04 Created by KiCad (PCBNEW (5.1.5)-3) date 2020-05-15 06:38:26*
%MOMM*%
%LPD*%
G04 APERTURE LIST*
%ADD10C,1.140000*%
%ADD11R,1.140000X1.140000*%
%ADD12O,1.400000X1.400000*%
%ADD13C,1.400000*%
%ADD14C,3.000000*%
%ADD15R,3.000000X3.000000*%
%ADD16O,1.600000X1.600000*%
%ADD17R,1.600000X1.600000*%
%ADD18C,0.800000*%
%ADD19C,0.254000*%
G04 APERTURE END LIST*
D10*
X100330000Y-76200000D03*
X100330000Y-78740000D03*
X100330000Y-81280000D03*
X100330000Y-83820000D03*
X100330000Y-86360000D03*
X100330000Y-88900000D03*
X100330000Y-91440000D03*
X92710000Y-91440000D03*
X92710000Y-88900000D03*
X92710000Y-86360000D03*
X92710000Y-83820000D03*
X92710000Y-81280000D03*
X92710000Y-78740000D03*
D11*
X92710000Y-76200000D03*
D12*
X146050000Y-92710000D03*
D13*
X140970000Y-92710000D03*
D12*
X149860000Y-78740000D03*
D13*
X144780000Y-78740000D03*
D12*
X111760000Y-104140000D03*
D13*
X106680000Y-104140000D03*
D12*
X125730000Y-95250000D03*
D13*
X120650000Y-95250000D03*
D12*
X68580000Y-114300000D03*
D13*
X63500000Y-114300000D03*
D12*
X161290000Y-83820000D03*
D13*
X156210000Y-83820000D03*
D12*
X151130000Y-115570000D03*
D13*
X146050000Y-115570000D03*
D12*
X127000000Y-106680000D03*
D13*
X121920000Y-106680000D03*
D12*
X144780000Y-127000000D03*
D13*
X139700000Y-127000000D03*
D12*
X119380000Y-85090000D03*
D13*
X114300000Y-85090000D03*
D14*
X74930000Y-81280000D03*
D15*
X69850000Y-81280000D03*
D14*
X110490000Y-115570000D03*
D15*
X105410000Y-115570000D03*
D14*
X109220000Y-60960000D03*
D15*
X104140000Y-60960000D03*
D16*
X140970000Y-69850000D03*
D17*
X133350000Y-69850000D03*
D16*
X87630000Y-121920000D03*
D17*
X80010000Y-121920000D03*
D16*
X138430000Y-116840000D03*
D17*
X130810000Y-116840000D03*
D16*
X81280000Y-66040000D03*
D17*
X73660000Y-66040000D03*
D18*
X81280000Y-66040000D02*
X81280000Y-74930000D01*
X81280000Y-74930000D02*
X92710000Y-86360000D01*
X87630000Y-121920000D02*
X87630000Y-120219700D01*
X87918700Y-91440000D02*
X87918700Y-119931000D01*
X87918700Y-119931000D02*
X87630000Y-120219700D01*
X73660000Y-66040000D02*
X73660000Y-75282600D01*
X73660000Y-75282600D02*
X87918700Y-89541300D01*
X87918700Y-89541300D02*
X87918700Y-91440000D01*
X92710000Y-91440000D02*
X87918700Y-91440000D01*
X133350000Y-69850000D02*
X133350000Y-71550300D01*
X138430000Y-116840000D02*
X138430000Y-76630300D01*
X138430000Y-76630300D02*
X133350000Y-71550300D01*
X130810000Y-116840000D02*
X130810000Y-118540300D01*
X130810000Y-118540300D02*
X131240300Y-118540300D01*
X131240300Y-118540300D02*
X139700000Y-127000000D01*
X121873500Y-106680000D02*
X121920000Y-106680000D01*
X121873500Y-106680000D02*
X121873500Y-106167700D01*
X121873500Y-106167700D02*
X102839600Y-87133800D01*
X102839600Y-87133800D02*
X102839600Y-76621100D01*
X102839600Y-76621100D02*
X100946000Y-74727500D01*
X100946000Y-74727500D02*
X99262500Y-74727500D01*
X99262500Y-74727500D02*
X92710000Y-81280000D01*
X121858000Y-106680000D02*
X121873500Y-106680000D01*
X149860000Y-78740000D02*
X151460300Y-78740000D01*
X156210000Y-83820000D02*
X151460300Y-79070300D01*
X151460300Y-79070300D02*
X151460300Y-78740000D01*
X149860000Y-78740000D02*
X149860000Y-77139700D01*
X140970000Y-69850000D02*
X142670300Y-69850000D01*
X142670300Y-69850000D02*
X142670300Y-69950000D01*
X142670300Y-69950000D02*
X149860000Y-77139700D01*
X119380000Y-85090000D02*
X119380000Y-83489700D01*
X109220000Y-60960000D02*
X109220000Y-73329700D01*
X109220000Y-73329700D02*
X119380000Y-83489700D01*
X127000000Y-106680000D02*
X127000000Y-105079700D01*
X127000000Y-105079700D02*
X125730000Y-103809700D01*
X125730000Y-103809700D02*
X125730000Y-95250000D01*
X119380000Y-85090000D02*
X119380000Y-86690300D01*
X119380000Y-86690300D02*
X125730000Y-93040300D01*
X125730000Y-93040300D02*
X125730000Y-95250000D01*
X144780000Y-125512100D02*
X151130000Y-119162100D01*
X151130000Y-119162100D02*
X151130000Y-115570000D01*
X144780000Y-126199800D02*
X144780000Y-125512100D01*
X104140000Y-60960000D02*
X104140000Y-86132900D01*
X104140000Y-86132900D02*
X143519200Y-125512100D01*
X143519200Y-125512100D02*
X144780000Y-125512100D01*
X144780000Y-127000000D02*
X144780000Y-126199800D01*
X105410000Y-115570000D02*
X105410000Y-113169700D01*
X105410000Y-113169700D02*
X100330000Y-108089700D01*
X100330000Y-108089700D02*
X100330000Y-91440000D01*
X98832100Y-88058400D02*
X99488400Y-88058400D01*
X99488400Y-88058400D02*
X100330000Y-88900000D01*
X92710000Y-88900000D02*
X97990500Y-88900000D01*
X97990500Y-88900000D02*
X98832100Y-88058400D01*
X100330000Y-83820000D02*
X98832100Y-85317900D01*
X98832100Y-85317900D02*
X98832100Y-88058400D01*
X146050000Y-115570000D02*
X146050000Y-92710000D01*
X100330000Y-86463300D02*
X106680000Y-92813300D01*
X106680000Y-92813300D02*
X106680000Y-104140000D01*
X100330000Y-86463300D02*
X100330000Y-86566700D01*
X100330000Y-86360000D02*
X100330000Y-86463300D01*
D19*
G36*
X130683000Y-83661680D02*
G01*
X119448876Y-81165208D01*
X111892987Y-72350004D01*
X113142113Y-62357000D01*
X130683000Y-62357000D01*
X130683000Y-83661680D01*
G37*
X130683000Y-83661680D02*
X119448876Y-81165208D01*
X111892987Y-72350004D01*
X113142113Y-62357000D01*
X130683000Y-62357000D01*
X130683000Y-83661680D01*
G36*
X137033000Y-104013000D02*
G01*
X128397000Y-104013000D01*
X128397000Y-92710000D01*
X128394560Y-92685224D01*
X128387333Y-92661399D01*
X128375597Y-92639443D01*
X128359803Y-92620197D01*
X122047000Y-86307394D01*
X122047000Y-83947000D01*
X137033000Y-83947000D01*
X137033000Y-104013000D01*
G37*
X137033000Y-104013000D02*
X128397000Y-104013000D01*
X128397000Y-92710000D01*
X128394560Y-92685224D01*
X128387333Y-92661399D01*
X128375597Y-92639443D01*
X128359803Y-92620197D01*
X122047000Y-86307394D01*
X122047000Y-83947000D01*
X137033000Y-83947000D01*
X137033000Y-104013000D01*
G36*
X137033000Y-114173000D02*
G01*
X134747000Y-114173000D01*
X134747000Y-104267000D01*
X137033000Y-104267000D01*
X137033000Y-114173000D01*
G37*
X137033000Y-114173000D02*
X134747000Y-114173000D01*
X134747000Y-104267000D01*
X137033000Y-104267000D01*
X137033000Y-114173000D01*
G36*
X134493000Y-113993394D02*
G01*
X128397000Y-107897394D01*
X128397000Y-104267000D01*
X134493000Y-104267000D01*
X134493000Y-113993394D01*
G37*
X134493000Y-113993394D02*
X128397000Y-107897394D01*
X128397000Y-104267000D01*
X134493000Y-104267000D01*
X134493000Y-113993394D01*
G36*
X130683000Y-83693000D02*
G01*
X122047000Y-83693000D01*
X122047000Y-81407000D01*
X130683000Y-81407000D01*
X130683000Y-83693000D01*
G37*
X130683000Y-83693000D02*
X122047000Y-83693000D01*
X122047000Y-81407000D01*
X130683000Y-81407000D01*
X130683000Y-83693000D01*
G36*
X137033000Y-83693000D02*
G01*
X130937000Y-83693000D01*
X130937000Y-77597000D01*
X137033000Y-77597000D01*
X137033000Y-83693000D01*
G37*
X137033000Y-83693000D02*
X130937000Y-83693000D01*
X130937000Y-77597000D01*
X137033000Y-77597000D01*
X137033000Y-83693000D01*
G36*
X97663000Y-117983000D02*
G01*
X90297000Y-117983000D01*
X90297000Y-96647000D01*
X97663000Y-96647000D01*
X97663000Y-117983000D01*
G37*
X97663000Y-117983000D02*
X90297000Y-117983000D01*
X90297000Y-96647000D01*
X97663000Y-96647000D01*
X97663000Y-117983000D01*
G36*
X84963000Y-116713000D02*
G01*
X73787000Y-116713000D01*
X73787000Y-89027000D01*
X84963000Y-89027000D01*
X84963000Y-116713000D01*
G37*
X84963000Y-116713000D02*
X73787000Y-116713000D01*
X73787000Y-89027000D01*
X84963000Y-89027000D01*
X84963000Y-116713000D01*
G36*
X128143000Y-116713000D02*
G01*
X115697000Y-116713000D01*
X115697000Y-111887000D01*
X128143000Y-111887000D01*
X128143000Y-116713000D01*
G37*
X128143000Y-116713000D02*
X115697000Y-116713000D01*
X115697000Y-111887000D01*
X128143000Y-111887000D01*
X128143000Y-116713000D01*
G36*
X100203000Y-72263000D02*
G01*
X83947000Y-72263000D01*
X83947000Y-67437000D01*
X100203000Y-67437000D01*
X100203000Y-72263000D01*
G37*
X100203000Y-72263000D02*
X83947000Y-72263000D01*
X83947000Y-67437000D01*
X100203000Y-67437000D01*
X100203000Y-72263000D01*
G36*
X157353000Y-112903000D02*
G01*
X148717000Y-112903000D01*
X148717000Y-87757000D01*
X157353000Y-87757000D01*
X157353000Y-112903000D01*
G37*
X157353000Y-112903000D02*
X148717000Y-112903000D01*
X148717000Y-87757000D01*
X157353000Y-87757000D01*
X157353000Y-112903000D01*
G36*
X148463000Y-90043000D02*
G01*
X141097000Y-90043000D01*
X141097000Y-82677000D01*
X148463000Y-82677000D01*
X148463000Y-90043000D01*
G37*
X148463000Y-90043000D02*
X141097000Y-90043000D01*
X141097000Y-82677000D01*
X148463000Y-82677000D01*
X148463000Y-90043000D01*
G36*
X110363000Y-82423000D02*
G01*
X106807000Y-82423000D01*
X106807000Y-77597000D01*
X110363000Y-77597000D01*
X110363000Y-82423000D01*
G37*
X110363000Y-82423000D02*
X106807000Y-82423000D01*
X106807000Y-77597000D01*
X110363000Y-77597000D01*
X110363000Y-82423000D01*
M02*
