G04 #@! TF.GenerationSoftware,KiCad,Pcbnew,(5.1.5)-3*
G04 #@! TF.CreationDate,2020-05-15T06:38:26+02:00*
G04 #@! TF.ProjectId,Frequency Mixer,46726571-7565-46e6-9379-204d69786572,rev?*
G04 #@! TF.SameCoordinates,Original*
G04 #@! TF.FileFunction,Soldermask,Top*
G04 #@! TF.FilePolarity,Negative*
%FSLAX46Y46*%
G04 Gerber Fmt 4.6, Leading zero omitted, Abs format (unit mm)*
G04 Created by KiCad (PCBNEW (5.1.5)-3) date 2020-05-15 06:38:26*
%MOMM*%
%LPD*%
G04 APERTURE LIST*
%ADD10C,0.100000*%
G04 APERTURE END LIST*
D10*
G36*
X144999059Y-126277860D02*
G01*
X145135732Y-126334472D01*
X145258735Y-126416660D01*
X145363340Y-126521265D01*
X145445528Y-126644268D01*
X145502140Y-126780941D01*
X145531000Y-126926033D01*
X145531000Y-127073967D01*
X145502140Y-127219059D01*
X145445528Y-127355732D01*
X145363340Y-127478735D01*
X145258735Y-127583340D01*
X145135732Y-127665528D01*
X145135731Y-127665529D01*
X145135730Y-127665529D01*
X144999059Y-127722140D01*
X144853968Y-127751000D01*
X144706032Y-127751000D01*
X144560941Y-127722140D01*
X144424270Y-127665529D01*
X144424269Y-127665529D01*
X144424268Y-127665528D01*
X144301265Y-127583340D01*
X144196660Y-127478735D01*
X144114472Y-127355732D01*
X144057860Y-127219059D01*
X144029000Y-127073967D01*
X144029000Y-126926033D01*
X144057860Y-126780941D01*
X144114472Y-126644268D01*
X144196660Y-126521265D01*
X144301265Y-126416660D01*
X144424268Y-126334472D01*
X144560941Y-126277860D01*
X144706032Y-126249000D01*
X144853968Y-126249000D01*
X144999059Y-126277860D01*
G37*
G36*
X139919059Y-126277860D02*
G01*
X140055732Y-126334472D01*
X140178735Y-126416660D01*
X140283340Y-126521265D01*
X140365528Y-126644268D01*
X140422140Y-126780941D01*
X140451000Y-126926033D01*
X140451000Y-127073967D01*
X140422140Y-127219059D01*
X140365528Y-127355732D01*
X140283340Y-127478735D01*
X140178735Y-127583340D01*
X140055732Y-127665528D01*
X140055731Y-127665529D01*
X140055730Y-127665529D01*
X139919059Y-127722140D01*
X139773968Y-127751000D01*
X139626032Y-127751000D01*
X139480941Y-127722140D01*
X139344270Y-127665529D01*
X139344269Y-127665529D01*
X139344268Y-127665528D01*
X139221265Y-127583340D01*
X139116660Y-127478735D01*
X139034472Y-127355732D01*
X138977860Y-127219059D01*
X138949000Y-127073967D01*
X138949000Y-126926033D01*
X138977860Y-126780941D01*
X139034472Y-126644268D01*
X139116660Y-126521265D01*
X139221265Y-126416660D01*
X139344268Y-126334472D01*
X139480941Y-126277860D01*
X139626032Y-126249000D01*
X139773968Y-126249000D01*
X139919059Y-126277860D01*
G37*
G36*
X80861000Y-122771000D02*
G01*
X79159000Y-122771000D01*
X79159000Y-121069000D01*
X80861000Y-121069000D01*
X80861000Y-122771000D01*
G37*
G36*
X87878228Y-121101703D02*
G01*
X88033100Y-121165853D01*
X88172481Y-121258985D01*
X88291015Y-121377519D01*
X88384147Y-121516900D01*
X88448297Y-121671772D01*
X88481000Y-121836184D01*
X88481000Y-122003816D01*
X88448297Y-122168228D01*
X88384147Y-122323100D01*
X88291015Y-122462481D01*
X88172481Y-122581015D01*
X88033100Y-122674147D01*
X87878228Y-122738297D01*
X87713816Y-122771000D01*
X87546184Y-122771000D01*
X87381772Y-122738297D01*
X87226900Y-122674147D01*
X87087519Y-122581015D01*
X86968985Y-122462481D01*
X86875853Y-122323100D01*
X86811703Y-122168228D01*
X86779000Y-122003816D01*
X86779000Y-121836184D01*
X86811703Y-121671772D01*
X86875853Y-121516900D01*
X86968985Y-121377519D01*
X87087519Y-121258985D01*
X87226900Y-121165853D01*
X87381772Y-121101703D01*
X87546184Y-121069000D01*
X87713816Y-121069000D01*
X87878228Y-121101703D01*
G37*
G36*
X131661000Y-117691000D02*
G01*
X129959000Y-117691000D01*
X129959000Y-115989000D01*
X131661000Y-115989000D01*
X131661000Y-117691000D01*
G37*
G36*
X138678228Y-116021703D02*
G01*
X138833100Y-116085853D01*
X138972481Y-116178985D01*
X139091015Y-116297519D01*
X139184147Y-116436900D01*
X139248297Y-116591772D01*
X139281000Y-116756184D01*
X139281000Y-116923816D01*
X139248297Y-117088228D01*
X139184147Y-117243100D01*
X139091015Y-117382481D01*
X138972481Y-117501015D01*
X138833100Y-117594147D01*
X138678228Y-117658297D01*
X138513816Y-117691000D01*
X138346184Y-117691000D01*
X138181772Y-117658297D01*
X138026900Y-117594147D01*
X137887519Y-117501015D01*
X137768985Y-117382481D01*
X137675853Y-117243100D01*
X137611703Y-117088228D01*
X137579000Y-116923816D01*
X137579000Y-116756184D01*
X137611703Y-116591772D01*
X137675853Y-116436900D01*
X137768985Y-116297519D01*
X137887519Y-116178985D01*
X138026900Y-116085853D01*
X138181772Y-116021703D01*
X138346184Y-115989000D01*
X138513816Y-115989000D01*
X138678228Y-116021703D01*
G37*
G36*
X110792585Y-114048802D02*
G01*
X110942410Y-114078604D01*
X111224674Y-114195521D01*
X111478705Y-114365259D01*
X111694741Y-114581295D01*
X111864479Y-114835326D01*
X111981396Y-115117590D01*
X112041000Y-115417240D01*
X112041000Y-115722760D01*
X111981396Y-116022410D01*
X111864479Y-116304674D01*
X111694741Y-116558705D01*
X111478705Y-116774741D01*
X111224674Y-116944479D01*
X110942410Y-117061396D01*
X110807516Y-117088228D01*
X110642761Y-117121000D01*
X110337239Y-117121000D01*
X110172484Y-117088228D01*
X110037590Y-117061396D01*
X109755326Y-116944479D01*
X109501295Y-116774741D01*
X109285259Y-116558705D01*
X109115521Y-116304674D01*
X108998604Y-116022410D01*
X108939000Y-115722760D01*
X108939000Y-115417240D01*
X108998604Y-115117590D01*
X109115521Y-114835326D01*
X109285259Y-114581295D01*
X109501295Y-114365259D01*
X109755326Y-114195521D01*
X110037590Y-114078604D01*
X110187415Y-114048802D01*
X110337239Y-114019000D01*
X110642761Y-114019000D01*
X110792585Y-114048802D01*
G37*
G36*
X106961000Y-117121000D02*
G01*
X103859000Y-117121000D01*
X103859000Y-114019000D01*
X106961000Y-114019000D01*
X106961000Y-117121000D01*
G37*
G36*
X146269059Y-114847860D02*
G01*
X146354718Y-114883341D01*
X146405732Y-114904472D01*
X146528735Y-114986660D01*
X146633340Y-115091265D01*
X146650930Y-115117591D01*
X146715529Y-115214270D01*
X146772140Y-115350941D01*
X146801000Y-115496032D01*
X146801000Y-115643968D01*
X146785327Y-115722761D01*
X146772140Y-115789059D01*
X146715528Y-115925732D01*
X146633340Y-116048735D01*
X146528735Y-116153340D01*
X146405732Y-116235528D01*
X146405731Y-116235529D01*
X146405730Y-116235529D01*
X146269059Y-116292140D01*
X146123968Y-116321000D01*
X145976032Y-116321000D01*
X145830941Y-116292140D01*
X145694270Y-116235529D01*
X145694269Y-116235529D01*
X145694268Y-116235528D01*
X145571265Y-116153340D01*
X145466660Y-116048735D01*
X145384472Y-115925732D01*
X145327860Y-115789059D01*
X145314673Y-115722761D01*
X145299000Y-115643968D01*
X145299000Y-115496032D01*
X145327860Y-115350941D01*
X145384471Y-115214270D01*
X145449070Y-115117591D01*
X145466660Y-115091265D01*
X145571265Y-114986660D01*
X145694268Y-114904472D01*
X145745283Y-114883341D01*
X145830941Y-114847860D01*
X145976032Y-114819000D01*
X146123968Y-114819000D01*
X146269059Y-114847860D01*
G37*
G36*
X151349059Y-114847860D02*
G01*
X151434718Y-114883341D01*
X151485732Y-114904472D01*
X151608735Y-114986660D01*
X151713340Y-115091265D01*
X151730930Y-115117591D01*
X151795529Y-115214270D01*
X151852140Y-115350941D01*
X151881000Y-115496032D01*
X151881000Y-115643968D01*
X151865327Y-115722761D01*
X151852140Y-115789059D01*
X151795528Y-115925732D01*
X151713340Y-116048735D01*
X151608735Y-116153340D01*
X151485732Y-116235528D01*
X151485731Y-116235529D01*
X151485730Y-116235529D01*
X151349059Y-116292140D01*
X151203968Y-116321000D01*
X151056032Y-116321000D01*
X150910941Y-116292140D01*
X150774270Y-116235529D01*
X150774269Y-116235529D01*
X150774268Y-116235528D01*
X150651265Y-116153340D01*
X150546660Y-116048735D01*
X150464472Y-115925732D01*
X150407860Y-115789059D01*
X150394673Y-115722761D01*
X150379000Y-115643968D01*
X150379000Y-115496032D01*
X150407860Y-115350941D01*
X150464471Y-115214270D01*
X150529070Y-115117591D01*
X150546660Y-115091265D01*
X150651265Y-114986660D01*
X150774268Y-114904472D01*
X150825283Y-114883341D01*
X150910941Y-114847860D01*
X151056032Y-114819000D01*
X151203968Y-114819000D01*
X151349059Y-114847860D01*
G37*
G36*
X63719059Y-113577860D02*
G01*
X63855732Y-113634472D01*
X63978735Y-113716660D01*
X64083340Y-113821265D01*
X64165528Y-113944268D01*
X64222140Y-114080941D01*
X64251000Y-114226033D01*
X64251000Y-114373967D01*
X64222140Y-114519059D01*
X64165528Y-114655732D01*
X64083340Y-114778735D01*
X63978735Y-114883340D01*
X63855732Y-114965528D01*
X63855731Y-114965529D01*
X63855730Y-114965529D01*
X63719059Y-115022140D01*
X63573968Y-115051000D01*
X63426032Y-115051000D01*
X63280941Y-115022140D01*
X63144270Y-114965529D01*
X63144269Y-114965529D01*
X63144268Y-114965528D01*
X63021265Y-114883340D01*
X62916660Y-114778735D01*
X62834472Y-114655732D01*
X62777860Y-114519059D01*
X62749000Y-114373967D01*
X62749000Y-114226033D01*
X62777860Y-114080941D01*
X62834472Y-113944268D01*
X62916660Y-113821265D01*
X63021265Y-113716660D01*
X63144268Y-113634472D01*
X63280941Y-113577860D01*
X63426032Y-113549000D01*
X63573968Y-113549000D01*
X63719059Y-113577860D01*
G37*
G36*
X68799059Y-113577860D02*
G01*
X68935732Y-113634472D01*
X69058735Y-113716660D01*
X69163340Y-113821265D01*
X69245528Y-113944268D01*
X69302140Y-114080941D01*
X69331000Y-114226033D01*
X69331000Y-114373967D01*
X69302140Y-114519059D01*
X69245528Y-114655732D01*
X69163340Y-114778735D01*
X69058735Y-114883340D01*
X68935732Y-114965528D01*
X68935731Y-114965529D01*
X68935730Y-114965529D01*
X68799059Y-115022140D01*
X68653968Y-115051000D01*
X68506032Y-115051000D01*
X68360941Y-115022140D01*
X68224270Y-114965529D01*
X68224269Y-114965529D01*
X68224268Y-114965528D01*
X68101265Y-114883340D01*
X67996660Y-114778735D01*
X67914472Y-114655732D01*
X67857860Y-114519059D01*
X67829000Y-114373967D01*
X67829000Y-114226033D01*
X67857860Y-114080941D01*
X67914472Y-113944268D01*
X67996660Y-113821265D01*
X68101265Y-113716660D01*
X68224268Y-113634472D01*
X68360941Y-113577860D01*
X68506032Y-113549000D01*
X68653968Y-113549000D01*
X68799059Y-113577860D01*
G37*
G36*
X122139059Y-105957860D02*
G01*
X122275732Y-106014472D01*
X122398735Y-106096660D01*
X122503340Y-106201265D01*
X122585528Y-106324268D01*
X122642140Y-106460941D01*
X122671000Y-106606033D01*
X122671000Y-106753967D01*
X122642140Y-106899059D01*
X122585528Y-107035732D01*
X122503340Y-107158735D01*
X122398735Y-107263340D01*
X122275732Y-107345528D01*
X122275731Y-107345529D01*
X122275730Y-107345529D01*
X122139059Y-107402140D01*
X121993968Y-107431000D01*
X121846032Y-107431000D01*
X121700941Y-107402140D01*
X121564270Y-107345529D01*
X121564269Y-107345529D01*
X121564268Y-107345528D01*
X121441265Y-107263340D01*
X121336660Y-107158735D01*
X121254472Y-107035732D01*
X121197860Y-106899059D01*
X121169000Y-106753967D01*
X121169000Y-106606033D01*
X121197860Y-106460941D01*
X121254472Y-106324268D01*
X121336660Y-106201265D01*
X121441265Y-106096660D01*
X121564268Y-106014472D01*
X121700941Y-105957860D01*
X121846032Y-105929000D01*
X121993968Y-105929000D01*
X122139059Y-105957860D01*
G37*
G36*
X127219059Y-105957860D02*
G01*
X127355732Y-106014472D01*
X127478735Y-106096660D01*
X127583340Y-106201265D01*
X127665528Y-106324268D01*
X127722140Y-106460941D01*
X127751000Y-106606033D01*
X127751000Y-106753967D01*
X127722140Y-106899059D01*
X127665528Y-107035732D01*
X127583340Y-107158735D01*
X127478735Y-107263340D01*
X127355732Y-107345528D01*
X127355731Y-107345529D01*
X127355730Y-107345529D01*
X127219059Y-107402140D01*
X127073968Y-107431000D01*
X126926032Y-107431000D01*
X126780941Y-107402140D01*
X126644270Y-107345529D01*
X126644269Y-107345529D01*
X126644268Y-107345528D01*
X126521265Y-107263340D01*
X126416660Y-107158735D01*
X126334472Y-107035732D01*
X126277860Y-106899059D01*
X126249000Y-106753967D01*
X126249000Y-106606033D01*
X126277860Y-106460941D01*
X126334472Y-106324268D01*
X126416660Y-106201265D01*
X126521265Y-106096660D01*
X126644268Y-106014472D01*
X126780941Y-105957860D01*
X126926032Y-105929000D01*
X127073968Y-105929000D01*
X127219059Y-105957860D01*
G37*
G36*
X111979059Y-103417860D02*
G01*
X112115732Y-103474472D01*
X112238735Y-103556660D01*
X112343340Y-103661265D01*
X112425528Y-103784268D01*
X112482140Y-103920941D01*
X112511000Y-104066033D01*
X112511000Y-104213967D01*
X112482140Y-104359059D01*
X112425528Y-104495732D01*
X112343340Y-104618735D01*
X112238735Y-104723340D01*
X112115732Y-104805528D01*
X112115731Y-104805529D01*
X112115730Y-104805529D01*
X111979059Y-104862140D01*
X111833968Y-104891000D01*
X111686032Y-104891000D01*
X111540941Y-104862140D01*
X111404270Y-104805529D01*
X111404269Y-104805529D01*
X111404268Y-104805528D01*
X111281265Y-104723340D01*
X111176660Y-104618735D01*
X111094472Y-104495732D01*
X111037860Y-104359059D01*
X111009000Y-104213967D01*
X111009000Y-104066033D01*
X111037860Y-103920941D01*
X111094472Y-103784268D01*
X111176660Y-103661265D01*
X111281265Y-103556660D01*
X111404268Y-103474472D01*
X111540941Y-103417860D01*
X111686032Y-103389000D01*
X111833968Y-103389000D01*
X111979059Y-103417860D01*
G37*
G36*
X106899059Y-103417860D02*
G01*
X107035732Y-103474472D01*
X107158735Y-103556660D01*
X107263340Y-103661265D01*
X107345528Y-103784268D01*
X107402140Y-103920941D01*
X107431000Y-104066033D01*
X107431000Y-104213967D01*
X107402140Y-104359059D01*
X107345528Y-104495732D01*
X107263340Y-104618735D01*
X107158735Y-104723340D01*
X107035732Y-104805528D01*
X107035731Y-104805529D01*
X107035730Y-104805529D01*
X106899059Y-104862140D01*
X106753968Y-104891000D01*
X106606032Y-104891000D01*
X106460941Y-104862140D01*
X106324270Y-104805529D01*
X106324269Y-104805529D01*
X106324268Y-104805528D01*
X106201265Y-104723340D01*
X106096660Y-104618735D01*
X106014472Y-104495732D01*
X105957860Y-104359059D01*
X105929000Y-104213967D01*
X105929000Y-104066033D01*
X105957860Y-103920941D01*
X106014472Y-103784268D01*
X106096660Y-103661265D01*
X106201265Y-103556660D01*
X106324268Y-103474472D01*
X106460941Y-103417860D01*
X106606032Y-103389000D01*
X106753968Y-103389000D01*
X106899059Y-103417860D01*
G37*
G36*
X125949059Y-94527860D02*
G01*
X126085732Y-94584472D01*
X126208735Y-94666660D01*
X126313340Y-94771265D01*
X126395528Y-94894268D01*
X126452140Y-95030941D01*
X126481000Y-95176033D01*
X126481000Y-95323967D01*
X126452140Y-95469059D01*
X126395528Y-95605732D01*
X126313340Y-95728735D01*
X126208735Y-95833340D01*
X126085732Y-95915528D01*
X126085731Y-95915529D01*
X126085730Y-95915529D01*
X125949059Y-95972140D01*
X125803968Y-96001000D01*
X125656032Y-96001000D01*
X125510941Y-95972140D01*
X125374270Y-95915529D01*
X125374269Y-95915529D01*
X125374268Y-95915528D01*
X125251265Y-95833340D01*
X125146660Y-95728735D01*
X125064472Y-95605732D01*
X125007860Y-95469059D01*
X124979000Y-95323967D01*
X124979000Y-95176033D01*
X125007860Y-95030941D01*
X125064472Y-94894268D01*
X125146660Y-94771265D01*
X125251265Y-94666660D01*
X125374268Y-94584472D01*
X125510941Y-94527860D01*
X125656032Y-94499000D01*
X125803968Y-94499000D01*
X125949059Y-94527860D01*
G37*
G36*
X120869059Y-94527860D02*
G01*
X121005732Y-94584472D01*
X121128735Y-94666660D01*
X121233340Y-94771265D01*
X121315528Y-94894268D01*
X121372140Y-95030941D01*
X121401000Y-95176033D01*
X121401000Y-95323967D01*
X121372140Y-95469059D01*
X121315528Y-95605732D01*
X121233340Y-95728735D01*
X121128735Y-95833340D01*
X121005732Y-95915528D01*
X121005731Y-95915529D01*
X121005730Y-95915529D01*
X120869059Y-95972140D01*
X120723968Y-96001000D01*
X120576032Y-96001000D01*
X120430941Y-95972140D01*
X120294270Y-95915529D01*
X120294269Y-95915529D01*
X120294268Y-95915528D01*
X120171265Y-95833340D01*
X120066660Y-95728735D01*
X119984472Y-95605732D01*
X119927860Y-95469059D01*
X119899000Y-95323967D01*
X119899000Y-95176033D01*
X119927860Y-95030941D01*
X119984472Y-94894268D01*
X120066660Y-94771265D01*
X120171265Y-94666660D01*
X120294268Y-94584472D01*
X120430941Y-94527860D01*
X120576032Y-94499000D01*
X120723968Y-94499000D01*
X120869059Y-94527860D01*
G37*
G36*
X146269059Y-91987860D02*
G01*
X146388022Y-92037136D01*
X146405732Y-92044472D01*
X146528735Y-92126660D01*
X146633340Y-92231265D01*
X146715528Y-92354268D01*
X146772140Y-92490941D01*
X146801000Y-92636033D01*
X146801000Y-92783967D01*
X146772140Y-92929059D01*
X146715528Y-93065732D01*
X146633340Y-93188735D01*
X146528735Y-93293340D01*
X146405732Y-93375528D01*
X146405731Y-93375529D01*
X146405730Y-93375529D01*
X146269059Y-93432140D01*
X146123968Y-93461000D01*
X145976032Y-93461000D01*
X145830941Y-93432140D01*
X145694270Y-93375529D01*
X145694269Y-93375529D01*
X145694268Y-93375528D01*
X145571265Y-93293340D01*
X145466660Y-93188735D01*
X145384472Y-93065732D01*
X145327860Y-92929059D01*
X145299000Y-92783967D01*
X145299000Y-92636033D01*
X145327860Y-92490941D01*
X145384472Y-92354268D01*
X145466660Y-92231265D01*
X145571265Y-92126660D01*
X145694268Y-92044472D01*
X145711979Y-92037136D01*
X145830941Y-91987860D01*
X145976032Y-91959000D01*
X146123968Y-91959000D01*
X146269059Y-91987860D01*
G37*
G36*
X141189059Y-91987860D02*
G01*
X141308022Y-92037136D01*
X141325732Y-92044472D01*
X141448735Y-92126660D01*
X141553340Y-92231265D01*
X141635528Y-92354268D01*
X141692140Y-92490941D01*
X141721000Y-92636033D01*
X141721000Y-92783967D01*
X141692140Y-92929059D01*
X141635528Y-93065732D01*
X141553340Y-93188735D01*
X141448735Y-93293340D01*
X141325732Y-93375528D01*
X141325731Y-93375529D01*
X141325730Y-93375529D01*
X141189059Y-93432140D01*
X141043968Y-93461000D01*
X140896032Y-93461000D01*
X140750941Y-93432140D01*
X140614270Y-93375529D01*
X140614269Y-93375529D01*
X140614268Y-93375528D01*
X140491265Y-93293340D01*
X140386660Y-93188735D01*
X140304472Y-93065732D01*
X140247860Y-92929059D01*
X140219000Y-92783967D01*
X140219000Y-92636033D01*
X140247860Y-92490941D01*
X140304472Y-92354268D01*
X140386660Y-92231265D01*
X140491265Y-92126660D01*
X140614268Y-92044472D01*
X140631979Y-92037136D01*
X140750941Y-91987860D01*
X140896032Y-91959000D01*
X141043968Y-91959000D01*
X141189059Y-91987860D01*
G37*
G36*
X100471147Y-90834909D02*
G01*
X100511139Y-90842864D01*
X100567647Y-90866271D01*
X100624155Y-90889677D01*
X100725862Y-90957635D01*
X100812365Y-91044138D01*
X100880323Y-91145845D01*
X100927136Y-91258862D01*
X100951000Y-91378835D01*
X100951000Y-91501165D01*
X100927136Y-91621138D01*
X100880323Y-91734155D01*
X100812365Y-91835862D01*
X100725862Y-91922365D01*
X100624155Y-91990323D01*
X100567646Y-92013730D01*
X100511139Y-92037136D01*
X100474262Y-92044471D01*
X100391165Y-92061000D01*
X100268835Y-92061000D01*
X100185738Y-92044471D01*
X100148861Y-92037136D01*
X100092354Y-92013730D01*
X100035845Y-91990323D01*
X99934138Y-91922365D01*
X99847635Y-91835862D01*
X99779677Y-91734155D01*
X99732864Y-91621138D01*
X99709000Y-91501165D01*
X99709000Y-91378835D01*
X99732864Y-91258862D01*
X99779677Y-91145845D01*
X99847635Y-91044138D01*
X99934138Y-90957635D01*
X100035845Y-90889677D01*
X100092353Y-90866271D01*
X100148861Y-90842864D01*
X100188853Y-90834909D01*
X100268835Y-90819000D01*
X100391165Y-90819000D01*
X100471147Y-90834909D01*
G37*
G36*
X92851147Y-90834909D02*
G01*
X92891139Y-90842864D01*
X92947647Y-90866271D01*
X93004155Y-90889677D01*
X93105862Y-90957635D01*
X93192365Y-91044138D01*
X93260323Y-91145845D01*
X93307136Y-91258862D01*
X93331000Y-91378835D01*
X93331000Y-91501165D01*
X93307136Y-91621138D01*
X93260323Y-91734155D01*
X93192365Y-91835862D01*
X93105862Y-91922365D01*
X93004155Y-91990323D01*
X92947646Y-92013730D01*
X92891139Y-92037136D01*
X92854262Y-92044471D01*
X92771165Y-92061000D01*
X92648835Y-92061000D01*
X92565738Y-92044471D01*
X92528861Y-92037136D01*
X92472354Y-92013730D01*
X92415845Y-91990323D01*
X92314138Y-91922365D01*
X92227635Y-91835862D01*
X92159677Y-91734155D01*
X92112864Y-91621138D01*
X92089000Y-91501165D01*
X92089000Y-91378835D01*
X92112864Y-91258862D01*
X92159677Y-91145845D01*
X92227635Y-91044138D01*
X92314138Y-90957635D01*
X92415845Y-90889677D01*
X92472353Y-90866271D01*
X92528861Y-90842864D01*
X92568853Y-90834909D01*
X92648835Y-90819000D01*
X92771165Y-90819000D01*
X92851147Y-90834909D01*
G37*
G36*
X100471147Y-88294909D02*
G01*
X100511139Y-88302864D01*
X100567646Y-88326270D01*
X100624155Y-88349677D01*
X100725862Y-88417635D01*
X100812365Y-88504138D01*
X100880323Y-88605845D01*
X100927136Y-88718862D01*
X100951000Y-88838835D01*
X100951000Y-88961165D01*
X100927136Y-89081138D01*
X100880323Y-89194155D01*
X100812365Y-89295862D01*
X100725862Y-89382365D01*
X100624155Y-89450323D01*
X100567647Y-89473729D01*
X100511139Y-89497136D01*
X100471147Y-89505091D01*
X100391165Y-89521000D01*
X100268835Y-89521000D01*
X100188853Y-89505091D01*
X100148861Y-89497136D01*
X100092354Y-89473730D01*
X100035845Y-89450323D01*
X99934138Y-89382365D01*
X99847635Y-89295862D01*
X99779677Y-89194155D01*
X99732864Y-89081138D01*
X99709000Y-88961165D01*
X99709000Y-88838835D01*
X99732864Y-88718862D01*
X99779677Y-88605845D01*
X99847635Y-88504138D01*
X99934138Y-88417635D01*
X100035845Y-88349677D01*
X100092354Y-88326270D01*
X100148861Y-88302864D01*
X100188853Y-88294909D01*
X100268835Y-88279000D01*
X100391165Y-88279000D01*
X100471147Y-88294909D01*
G37*
G36*
X92851147Y-88294909D02*
G01*
X92891139Y-88302864D01*
X92947646Y-88326270D01*
X93004155Y-88349677D01*
X93105862Y-88417635D01*
X93192365Y-88504138D01*
X93260323Y-88605845D01*
X93307136Y-88718862D01*
X93331000Y-88838835D01*
X93331000Y-88961165D01*
X93307136Y-89081138D01*
X93260323Y-89194155D01*
X93192365Y-89295862D01*
X93105862Y-89382365D01*
X93004155Y-89450323D01*
X92947647Y-89473729D01*
X92891139Y-89497136D01*
X92851147Y-89505091D01*
X92771165Y-89521000D01*
X92648835Y-89521000D01*
X92568853Y-89505091D01*
X92528861Y-89497136D01*
X92472354Y-89473730D01*
X92415845Y-89450323D01*
X92314138Y-89382365D01*
X92227635Y-89295862D01*
X92159677Y-89194155D01*
X92112864Y-89081138D01*
X92089000Y-88961165D01*
X92089000Y-88838835D01*
X92112864Y-88718862D01*
X92159677Y-88605845D01*
X92227635Y-88504138D01*
X92314138Y-88417635D01*
X92415845Y-88349677D01*
X92472354Y-88326270D01*
X92528861Y-88302864D01*
X92568853Y-88294909D01*
X92648835Y-88279000D01*
X92771165Y-88279000D01*
X92851147Y-88294909D01*
G37*
G36*
X92851147Y-85754909D02*
G01*
X92891139Y-85762864D01*
X92947647Y-85786271D01*
X93004155Y-85809677D01*
X93105862Y-85877635D01*
X93192365Y-85964138D01*
X93260323Y-86065845D01*
X93307136Y-86178862D01*
X93331000Y-86298835D01*
X93331000Y-86421165D01*
X93307136Y-86541138D01*
X93260323Y-86654155D01*
X93192365Y-86755862D01*
X93105862Y-86842365D01*
X93004155Y-86910323D01*
X92947647Y-86933729D01*
X92891139Y-86957136D01*
X92851147Y-86965091D01*
X92771165Y-86981000D01*
X92648835Y-86981000D01*
X92568853Y-86965091D01*
X92528861Y-86957136D01*
X92472353Y-86933729D01*
X92415845Y-86910323D01*
X92314138Y-86842365D01*
X92227635Y-86755862D01*
X92159677Y-86654155D01*
X92112864Y-86541138D01*
X92089000Y-86421165D01*
X92089000Y-86298835D01*
X92112864Y-86178862D01*
X92159677Y-86065845D01*
X92227635Y-85964138D01*
X92314138Y-85877635D01*
X92415845Y-85809677D01*
X92472353Y-85786271D01*
X92528861Y-85762864D01*
X92568853Y-85754909D01*
X92648835Y-85739000D01*
X92771165Y-85739000D01*
X92851147Y-85754909D01*
G37*
G36*
X100471147Y-85754909D02*
G01*
X100511139Y-85762864D01*
X100567647Y-85786271D01*
X100624155Y-85809677D01*
X100725862Y-85877635D01*
X100812365Y-85964138D01*
X100880323Y-86065845D01*
X100927136Y-86178862D01*
X100951000Y-86298835D01*
X100951000Y-86421165D01*
X100927136Y-86541138D01*
X100880323Y-86654155D01*
X100812365Y-86755862D01*
X100725862Y-86842365D01*
X100624155Y-86910323D01*
X100567647Y-86933729D01*
X100511139Y-86957136D01*
X100471147Y-86965091D01*
X100391165Y-86981000D01*
X100268835Y-86981000D01*
X100188853Y-86965091D01*
X100148861Y-86957136D01*
X100092353Y-86933729D01*
X100035845Y-86910323D01*
X99934138Y-86842365D01*
X99847635Y-86755862D01*
X99779677Y-86654155D01*
X99732864Y-86541138D01*
X99709000Y-86421165D01*
X99709000Y-86298835D01*
X99732864Y-86178862D01*
X99779677Y-86065845D01*
X99847635Y-85964138D01*
X99934138Y-85877635D01*
X100035845Y-85809677D01*
X100092353Y-85786271D01*
X100148861Y-85762864D01*
X100188853Y-85754909D01*
X100268835Y-85739000D01*
X100391165Y-85739000D01*
X100471147Y-85754909D01*
G37*
G36*
X119599059Y-84367860D02*
G01*
X119718022Y-84417136D01*
X119735732Y-84424472D01*
X119858735Y-84506660D01*
X119963340Y-84611265D01*
X120045528Y-84734268D01*
X120102140Y-84870941D01*
X120131000Y-85016033D01*
X120131000Y-85163967D01*
X120102140Y-85309059D01*
X120045528Y-85445732D01*
X119963340Y-85568735D01*
X119858735Y-85673340D01*
X119735732Y-85755528D01*
X119735731Y-85755529D01*
X119735730Y-85755529D01*
X119599059Y-85812140D01*
X119453968Y-85841000D01*
X119306032Y-85841000D01*
X119160941Y-85812140D01*
X119024270Y-85755529D01*
X119024269Y-85755529D01*
X119024268Y-85755528D01*
X118901265Y-85673340D01*
X118796660Y-85568735D01*
X118714472Y-85445732D01*
X118657860Y-85309059D01*
X118629000Y-85163967D01*
X118629000Y-85016033D01*
X118657860Y-84870941D01*
X118714472Y-84734268D01*
X118796660Y-84611265D01*
X118901265Y-84506660D01*
X119024268Y-84424472D01*
X119041979Y-84417136D01*
X119160941Y-84367860D01*
X119306032Y-84339000D01*
X119453968Y-84339000D01*
X119599059Y-84367860D01*
G37*
G36*
X114519059Y-84367860D02*
G01*
X114638022Y-84417136D01*
X114655732Y-84424472D01*
X114778735Y-84506660D01*
X114883340Y-84611265D01*
X114965528Y-84734268D01*
X115022140Y-84870941D01*
X115051000Y-85016033D01*
X115051000Y-85163967D01*
X115022140Y-85309059D01*
X114965528Y-85445732D01*
X114883340Y-85568735D01*
X114778735Y-85673340D01*
X114655732Y-85755528D01*
X114655731Y-85755529D01*
X114655730Y-85755529D01*
X114519059Y-85812140D01*
X114373968Y-85841000D01*
X114226032Y-85841000D01*
X114080941Y-85812140D01*
X113944270Y-85755529D01*
X113944269Y-85755529D01*
X113944268Y-85755528D01*
X113821265Y-85673340D01*
X113716660Y-85568735D01*
X113634472Y-85445732D01*
X113577860Y-85309059D01*
X113549000Y-85163967D01*
X113549000Y-85016033D01*
X113577860Y-84870941D01*
X113634472Y-84734268D01*
X113716660Y-84611265D01*
X113821265Y-84506660D01*
X113944268Y-84424472D01*
X113961979Y-84417136D01*
X114080941Y-84367860D01*
X114226032Y-84339000D01*
X114373968Y-84339000D01*
X114519059Y-84367860D01*
G37*
G36*
X161509059Y-83097860D02*
G01*
X161645732Y-83154472D01*
X161768735Y-83236660D01*
X161873340Y-83341265D01*
X161955528Y-83464268D01*
X162012140Y-83600941D01*
X162041000Y-83746033D01*
X162041000Y-83893967D01*
X162012140Y-84039059D01*
X161955528Y-84175732D01*
X161873340Y-84298735D01*
X161768735Y-84403340D01*
X161645732Y-84485528D01*
X161645731Y-84485529D01*
X161645730Y-84485529D01*
X161509059Y-84542140D01*
X161363968Y-84571000D01*
X161216032Y-84571000D01*
X161070941Y-84542140D01*
X160934270Y-84485529D01*
X160934269Y-84485529D01*
X160934268Y-84485528D01*
X160811265Y-84403340D01*
X160706660Y-84298735D01*
X160624472Y-84175732D01*
X160567860Y-84039059D01*
X160539000Y-83893967D01*
X160539000Y-83746033D01*
X160567860Y-83600941D01*
X160624472Y-83464268D01*
X160706660Y-83341265D01*
X160811265Y-83236660D01*
X160934268Y-83154472D01*
X161070941Y-83097860D01*
X161216032Y-83069000D01*
X161363968Y-83069000D01*
X161509059Y-83097860D01*
G37*
G36*
X156429059Y-83097860D02*
G01*
X156565732Y-83154472D01*
X156688735Y-83236660D01*
X156793340Y-83341265D01*
X156875528Y-83464268D01*
X156932140Y-83600941D01*
X156961000Y-83746033D01*
X156961000Y-83893967D01*
X156932140Y-84039059D01*
X156875528Y-84175732D01*
X156793340Y-84298735D01*
X156688735Y-84403340D01*
X156565732Y-84485528D01*
X156565731Y-84485529D01*
X156565730Y-84485529D01*
X156429059Y-84542140D01*
X156283968Y-84571000D01*
X156136032Y-84571000D01*
X155990941Y-84542140D01*
X155854270Y-84485529D01*
X155854269Y-84485529D01*
X155854268Y-84485528D01*
X155731265Y-84403340D01*
X155626660Y-84298735D01*
X155544472Y-84175732D01*
X155487860Y-84039059D01*
X155459000Y-83893967D01*
X155459000Y-83746033D01*
X155487860Y-83600941D01*
X155544472Y-83464268D01*
X155626660Y-83341265D01*
X155731265Y-83236660D01*
X155854268Y-83154472D01*
X155990941Y-83097860D01*
X156136032Y-83069000D01*
X156283968Y-83069000D01*
X156429059Y-83097860D01*
G37*
G36*
X100471147Y-83214909D02*
G01*
X100511139Y-83222864D01*
X100544445Y-83236660D01*
X100624155Y-83269677D01*
X100725862Y-83337635D01*
X100812365Y-83424138D01*
X100880323Y-83525845D01*
X100927136Y-83638862D01*
X100951000Y-83758835D01*
X100951000Y-83881165D01*
X100927136Y-84001138D01*
X100880323Y-84114155D01*
X100812365Y-84215862D01*
X100725862Y-84302365D01*
X100624155Y-84370323D01*
X100567646Y-84393730D01*
X100511139Y-84417136D01*
X100474262Y-84424471D01*
X100391165Y-84441000D01*
X100268835Y-84441000D01*
X100185738Y-84424471D01*
X100148861Y-84417136D01*
X100092353Y-84393729D01*
X100035845Y-84370323D01*
X99934138Y-84302365D01*
X99847635Y-84215862D01*
X99779677Y-84114155D01*
X99732864Y-84001138D01*
X99709000Y-83881165D01*
X99709000Y-83758835D01*
X99732864Y-83638862D01*
X99779677Y-83525845D01*
X99847635Y-83424138D01*
X99934138Y-83337635D01*
X100035845Y-83269677D01*
X100115555Y-83236660D01*
X100148861Y-83222864D01*
X100188853Y-83214909D01*
X100268835Y-83199000D01*
X100391165Y-83199000D01*
X100471147Y-83214909D01*
G37*
G36*
X92851147Y-83214909D02*
G01*
X92891139Y-83222864D01*
X92924445Y-83236660D01*
X93004155Y-83269677D01*
X93105862Y-83337635D01*
X93192365Y-83424138D01*
X93260323Y-83525845D01*
X93307136Y-83638862D01*
X93331000Y-83758835D01*
X93331000Y-83881165D01*
X93307136Y-84001138D01*
X93260323Y-84114155D01*
X93192365Y-84215862D01*
X93105862Y-84302365D01*
X93004155Y-84370323D01*
X92947646Y-84393730D01*
X92891139Y-84417136D01*
X92854262Y-84424471D01*
X92771165Y-84441000D01*
X92648835Y-84441000D01*
X92565738Y-84424471D01*
X92528861Y-84417136D01*
X92472353Y-84393729D01*
X92415845Y-84370323D01*
X92314138Y-84302365D01*
X92227635Y-84215862D01*
X92159677Y-84114155D01*
X92112864Y-84001138D01*
X92089000Y-83881165D01*
X92089000Y-83758835D01*
X92112864Y-83638862D01*
X92159677Y-83525845D01*
X92227635Y-83424138D01*
X92314138Y-83337635D01*
X92415845Y-83269677D01*
X92495555Y-83236660D01*
X92528861Y-83222864D01*
X92568853Y-83214909D01*
X92648835Y-83199000D01*
X92771165Y-83199000D01*
X92851147Y-83214909D01*
G37*
G36*
X71401000Y-82831000D02*
G01*
X68299000Y-82831000D01*
X68299000Y-79729000D01*
X71401000Y-79729000D01*
X71401000Y-82831000D01*
G37*
G36*
X75232585Y-79758802D02*
G01*
X75382410Y-79788604D01*
X75664674Y-79905521D01*
X75918705Y-80075259D01*
X76134741Y-80291295D01*
X76304479Y-80545326D01*
X76421396Y-80827590D01*
X76481000Y-81127240D01*
X76481000Y-81432760D01*
X76421396Y-81732410D01*
X76304479Y-82014674D01*
X76134741Y-82268705D01*
X75918705Y-82484741D01*
X75664674Y-82654479D01*
X75382410Y-82771396D01*
X75232585Y-82801198D01*
X75082761Y-82831000D01*
X74777239Y-82831000D01*
X74627415Y-82801198D01*
X74477590Y-82771396D01*
X74195326Y-82654479D01*
X73941295Y-82484741D01*
X73725259Y-82268705D01*
X73555521Y-82014674D01*
X73438604Y-81732410D01*
X73379000Y-81432760D01*
X73379000Y-81127240D01*
X73438604Y-80827590D01*
X73555521Y-80545326D01*
X73725259Y-80291295D01*
X73941295Y-80075259D01*
X74195326Y-79905521D01*
X74477590Y-79788604D01*
X74627415Y-79758802D01*
X74777239Y-79729000D01*
X75082761Y-79729000D01*
X75232585Y-79758802D01*
G37*
G36*
X100471147Y-80674909D02*
G01*
X100511139Y-80682864D01*
X100567646Y-80706270D01*
X100624155Y-80729677D01*
X100725862Y-80797635D01*
X100812365Y-80884138D01*
X100880323Y-80985845D01*
X100927136Y-81098862D01*
X100951000Y-81218835D01*
X100951000Y-81341165D01*
X100927136Y-81461138D01*
X100880323Y-81574155D01*
X100812365Y-81675862D01*
X100725862Y-81762365D01*
X100624155Y-81830323D01*
X100567646Y-81853730D01*
X100511139Y-81877136D01*
X100471147Y-81885091D01*
X100391165Y-81901000D01*
X100268835Y-81901000D01*
X100188853Y-81885091D01*
X100148861Y-81877136D01*
X100092353Y-81853729D01*
X100035845Y-81830323D01*
X99934138Y-81762365D01*
X99847635Y-81675862D01*
X99779677Y-81574155D01*
X99732864Y-81461138D01*
X99709000Y-81341165D01*
X99709000Y-81218835D01*
X99732864Y-81098862D01*
X99779677Y-80985845D01*
X99847635Y-80884138D01*
X99934138Y-80797635D01*
X100035845Y-80729677D01*
X100092354Y-80706270D01*
X100148861Y-80682864D01*
X100188853Y-80674909D01*
X100268835Y-80659000D01*
X100391165Y-80659000D01*
X100471147Y-80674909D01*
G37*
G36*
X92851147Y-80674909D02*
G01*
X92891139Y-80682864D01*
X92947646Y-80706270D01*
X93004155Y-80729677D01*
X93105862Y-80797635D01*
X93192365Y-80884138D01*
X93260323Y-80985845D01*
X93307136Y-81098862D01*
X93331000Y-81218835D01*
X93331000Y-81341165D01*
X93307136Y-81461138D01*
X93260323Y-81574155D01*
X93192365Y-81675862D01*
X93105862Y-81762365D01*
X93004155Y-81830323D01*
X92947646Y-81853730D01*
X92891139Y-81877136D01*
X92851147Y-81885091D01*
X92771165Y-81901000D01*
X92648835Y-81901000D01*
X92568853Y-81885091D01*
X92528861Y-81877136D01*
X92472353Y-81853729D01*
X92415845Y-81830323D01*
X92314138Y-81762365D01*
X92227635Y-81675862D01*
X92159677Y-81574155D01*
X92112864Y-81461138D01*
X92089000Y-81341165D01*
X92089000Y-81218835D01*
X92112864Y-81098862D01*
X92159677Y-80985845D01*
X92227635Y-80884138D01*
X92314138Y-80797635D01*
X92415845Y-80729677D01*
X92472354Y-80706270D01*
X92528861Y-80682864D01*
X92568853Y-80674909D01*
X92648835Y-80659000D01*
X92771165Y-80659000D01*
X92851147Y-80674909D01*
G37*
G36*
X150079059Y-78017860D02*
G01*
X150215732Y-78074472D01*
X150338735Y-78156660D01*
X150443340Y-78261265D01*
X150525528Y-78384268D01*
X150582140Y-78520941D01*
X150611000Y-78666033D01*
X150611000Y-78813967D01*
X150582140Y-78959059D01*
X150525528Y-79095732D01*
X150443340Y-79218735D01*
X150338735Y-79323340D01*
X150215732Y-79405528D01*
X150215731Y-79405529D01*
X150215730Y-79405529D01*
X150079059Y-79462140D01*
X149933968Y-79491000D01*
X149786032Y-79491000D01*
X149640941Y-79462140D01*
X149504270Y-79405529D01*
X149504269Y-79405529D01*
X149504268Y-79405528D01*
X149381265Y-79323340D01*
X149276660Y-79218735D01*
X149194472Y-79095732D01*
X149137860Y-78959059D01*
X149109000Y-78813967D01*
X149109000Y-78666033D01*
X149137860Y-78520941D01*
X149194472Y-78384268D01*
X149276660Y-78261265D01*
X149381265Y-78156660D01*
X149504268Y-78074472D01*
X149640941Y-78017860D01*
X149786032Y-77989000D01*
X149933968Y-77989000D01*
X150079059Y-78017860D01*
G37*
G36*
X144999059Y-78017860D02*
G01*
X145135732Y-78074472D01*
X145258735Y-78156660D01*
X145363340Y-78261265D01*
X145445528Y-78384268D01*
X145502140Y-78520941D01*
X145531000Y-78666033D01*
X145531000Y-78813967D01*
X145502140Y-78959059D01*
X145445528Y-79095732D01*
X145363340Y-79218735D01*
X145258735Y-79323340D01*
X145135732Y-79405528D01*
X145135731Y-79405529D01*
X145135730Y-79405529D01*
X144999059Y-79462140D01*
X144853968Y-79491000D01*
X144706032Y-79491000D01*
X144560941Y-79462140D01*
X144424270Y-79405529D01*
X144424269Y-79405529D01*
X144424268Y-79405528D01*
X144301265Y-79323340D01*
X144196660Y-79218735D01*
X144114472Y-79095732D01*
X144057860Y-78959059D01*
X144029000Y-78813967D01*
X144029000Y-78666033D01*
X144057860Y-78520941D01*
X144114472Y-78384268D01*
X144196660Y-78261265D01*
X144301265Y-78156660D01*
X144424268Y-78074472D01*
X144560941Y-78017860D01*
X144706032Y-77989000D01*
X144853968Y-77989000D01*
X144999059Y-78017860D01*
G37*
G36*
X100471147Y-78134909D02*
G01*
X100511139Y-78142864D01*
X100544445Y-78156660D01*
X100624155Y-78189677D01*
X100725862Y-78257635D01*
X100812365Y-78344138D01*
X100880323Y-78445845D01*
X100927136Y-78558862D01*
X100951000Y-78678835D01*
X100951000Y-78801165D01*
X100927136Y-78921138D01*
X100880323Y-79034155D01*
X100812365Y-79135862D01*
X100725862Y-79222365D01*
X100624155Y-79290323D01*
X100567646Y-79313730D01*
X100511139Y-79337136D01*
X100471147Y-79345091D01*
X100391165Y-79361000D01*
X100268835Y-79361000D01*
X100188853Y-79345091D01*
X100148861Y-79337136D01*
X100092354Y-79313730D01*
X100035845Y-79290323D01*
X99934138Y-79222365D01*
X99847635Y-79135862D01*
X99779677Y-79034155D01*
X99732864Y-78921138D01*
X99709000Y-78801165D01*
X99709000Y-78678835D01*
X99732864Y-78558862D01*
X99779677Y-78445845D01*
X99847635Y-78344138D01*
X99934138Y-78257635D01*
X100035845Y-78189677D01*
X100115555Y-78156660D01*
X100148861Y-78142864D01*
X100188853Y-78134909D01*
X100268835Y-78119000D01*
X100391165Y-78119000D01*
X100471147Y-78134909D01*
G37*
G36*
X92851147Y-78134909D02*
G01*
X92891139Y-78142864D01*
X92924445Y-78156660D01*
X93004155Y-78189677D01*
X93105862Y-78257635D01*
X93192365Y-78344138D01*
X93260323Y-78445845D01*
X93307136Y-78558862D01*
X93331000Y-78678835D01*
X93331000Y-78801165D01*
X93307136Y-78921138D01*
X93260323Y-79034155D01*
X93192365Y-79135862D01*
X93105862Y-79222365D01*
X93004155Y-79290323D01*
X92947646Y-79313730D01*
X92891139Y-79337136D01*
X92851147Y-79345091D01*
X92771165Y-79361000D01*
X92648835Y-79361000D01*
X92568853Y-79345091D01*
X92528861Y-79337136D01*
X92472354Y-79313730D01*
X92415845Y-79290323D01*
X92314138Y-79222365D01*
X92227635Y-79135862D01*
X92159677Y-79034155D01*
X92112864Y-78921138D01*
X92089000Y-78801165D01*
X92089000Y-78678835D01*
X92112864Y-78558862D01*
X92159677Y-78445845D01*
X92227635Y-78344138D01*
X92314138Y-78257635D01*
X92415845Y-78189677D01*
X92495555Y-78156660D01*
X92528861Y-78142864D01*
X92568853Y-78134909D01*
X92648835Y-78119000D01*
X92771165Y-78119000D01*
X92851147Y-78134909D01*
G37*
G36*
X100471147Y-75594909D02*
G01*
X100511139Y-75602864D01*
X100567646Y-75626270D01*
X100624155Y-75649677D01*
X100725862Y-75717635D01*
X100812365Y-75804138D01*
X100880323Y-75905845D01*
X100927136Y-76018862D01*
X100951000Y-76138835D01*
X100951000Y-76261165D01*
X100927136Y-76381138D01*
X100880323Y-76494155D01*
X100812365Y-76595862D01*
X100725862Y-76682365D01*
X100624155Y-76750323D01*
X100567647Y-76773729D01*
X100511139Y-76797136D01*
X100471147Y-76805091D01*
X100391165Y-76821000D01*
X100268835Y-76821000D01*
X100188853Y-76805091D01*
X100148861Y-76797136D01*
X100092353Y-76773729D01*
X100035845Y-76750323D01*
X99934138Y-76682365D01*
X99847635Y-76595862D01*
X99779677Y-76494155D01*
X99732864Y-76381138D01*
X99709000Y-76261165D01*
X99709000Y-76138835D01*
X99732864Y-76018862D01*
X99779677Y-75905845D01*
X99847635Y-75804138D01*
X99934138Y-75717635D01*
X100035845Y-75649677D01*
X100092353Y-75626271D01*
X100148861Y-75602864D01*
X100188853Y-75594909D01*
X100268835Y-75579000D01*
X100391165Y-75579000D01*
X100471147Y-75594909D01*
G37*
G36*
X93331000Y-76821000D02*
G01*
X92089000Y-76821000D01*
X92089000Y-75579000D01*
X93331000Y-75579000D01*
X93331000Y-76821000D01*
G37*
G36*
X141218228Y-69031703D02*
G01*
X141373100Y-69095853D01*
X141512481Y-69188985D01*
X141631015Y-69307519D01*
X141724147Y-69446900D01*
X141788297Y-69601772D01*
X141821000Y-69766184D01*
X141821000Y-69933816D01*
X141788297Y-70098228D01*
X141724147Y-70253100D01*
X141631015Y-70392481D01*
X141512481Y-70511015D01*
X141373100Y-70604147D01*
X141218228Y-70668297D01*
X141053816Y-70701000D01*
X140886184Y-70701000D01*
X140721772Y-70668297D01*
X140566900Y-70604147D01*
X140427519Y-70511015D01*
X140308985Y-70392481D01*
X140215853Y-70253100D01*
X140151703Y-70098228D01*
X140119000Y-69933816D01*
X140119000Y-69766184D01*
X140151703Y-69601772D01*
X140215853Y-69446900D01*
X140308985Y-69307519D01*
X140427519Y-69188985D01*
X140566900Y-69095853D01*
X140721772Y-69031703D01*
X140886184Y-68999000D01*
X141053816Y-68999000D01*
X141218228Y-69031703D01*
G37*
G36*
X134201000Y-70701000D02*
G01*
X132499000Y-70701000D01*
X132499000Y-68999000D01*
X134201000Y-68999000D01*
X134201000Y-70701000D01*
G37*
G36*
X74511000Y-66891000D02*
G01*
X72809000Y-66891000D01*
X72809000Y-65189000D01*
X74511000Y-65189000D01*
X74511000Y-66891000D01*
G37*
G36*
X81528228Y-65221703D02*
G01*
X81683100Y-65285853D01*
X81822481Y-65378985D01*
X81941015Y-65497519D01*
X82034147Y-65636900D01*
X82098297Y-65791772D01*
X82131000Y-65956184D01*
X82131000Y-66123816D01*
X82098297Y-66288228D01*
X82034147Y-66443100D01*
X81941015Y-66582481D01*
X81822481Y-66701015D01*
X81683100Y-66794147D01*
X81528228Y-66858297D01*
X81363816Y-66891000D01*
X81196184Y-66891000D01*
X81031772Y-66858297D01*
X80876900Y-66794147D01*
X80737519Y-66701015D01*
X80618985Y-66582481D01*
X80525853Y-66443100D01*
X80461703Y-66288228D01*
X80429000Y-66123816D01*
X80429000Y-65956184D01*
X80461703Y-65791772D01*
X80525853Y-65636900D01*
X80618985Y-65497519D01*
X80737519Y-65378985D01*
X80876900Y-65285853D01*
X81031772Y-65221703D01*
X81196184Y-65189000D01*
X81363816Y-65189000D01*
X81528228Y-65221703D01*
G37*
G36*
X105691000Y-62511000D02*
G01*
X102589000Y-62511000D01*
X102589000Y-59409000D01*
X105691000Y-59409000D01*
X105691000Y-62511000D01*
G37*
G36*
X109522585Y-59438802D02*
G01*
X109672410Y-59468604D01*
X109954674Y-59585521D01*
X110208705Y-59755259D01*
X110424741Y-59971295D01*
X110594479Y-60225326D01*
X110711396Y-60507590D01*
X110771000Y-60807240D01*
X110771000Y-61112760D01*
X110711396Y-61412410D01*
X110594479Y-61694674D01*
X110424741Y-61948705D01*
X110208705Y-62164741D01*
X109954674Y-62334479D01*
X109672410Y-62451396D01*
X109522585Y-62481198D01*
X109372761Y-62511000D01*
X109067239Y-62511000D01*
X108917415Y-62481198D01*
X108767590Y-62451396D01*
X108485326Y-62334479D01*
X108231295Y-62164741D01*
X108015259Y-61948705D01*
X107845521Y-61694674D01*
X107728604Y-61412410D01*
X107669000Y-61112760D01*
X107669000Y-60807240D01*
X107728604Y-60507590D01*
X107845521Y-60225326D01*
X108015259Y-59971295D01*
X108231295Y-59755259D01*
X108485326Y-59585521D01*
X108767590Y-59468604D01*
X108917415Y-59438802D01*
X109067239Y-59409000D01*
X109372761Y-59409000D01*
X109522585Y-59438802D01*
G37*
M02*
