G04 #@! TF.GenerationSoftware,KiCad,Pcbnew,(5.1.5)-3*
G04 #@! TF.CreationDate,2020-05-15T06:38:26+02:00*
G04 #@! TF.ProjectId,Frequency Mixer,46726571-7565-46e6-9379-204d69786572,rev?*
G04 #@! TF.SameCoordinates,Original*
G04 #@! TF.FileFunction,Legend,Top*
G04 #@! TF.FilePolarity,Positive*
%FSLAX46Y46*%
G04 Gerber Fmt 4.6, Leading zero omitted, Abs format (unit mm)*
G04 Created by KiCad (PCBNEW (5.1.5)-3) date 2020-05-15 06:38:26*
%MOMM*%
%LPD*%
G04 APERTURE LIST*
%ADD10C,0.127000*%
%ADD11C,0.200000*%
%ADD12C,0.120000*%
%ADD13C,0.015000*%
%ADD14C,0.150000*%
G04 APERTURE END LIST*
D10*
X99820000Y-92330000D02*
X99820000Y-93670000D01*
X93220000Y-92330000D02*
X93220000Y-93670000D01*
X99820000Y-73970000D02*
X99820000Y-75310000D01*
X93220000Y-73970000D02*
X93220000Y-75310000D01*
D11*
X91020000Y-76220000D02*
G75*
G03X91020000Y-76220000I-100000J0D01*
G01*
D10*
X99820000Y-73970000D02*
X93220000Y-73970000D01*
X93220000Y-93670000D02*
X99820000Y-93670000D01*
D12*
X141590000Y-93630000D02*
X145430000Y-93630000D01*
X141590000Y-91790000D02*
X145430000Y-91790000D01*
X145400000Y-79660000D02*
X149240000Y-79660000D01*
X145400000Y-77820000D02*
X149240000Y-77820000D01*
X107300000Y-105060000D02*
X111140000Y-105060000D01*
X107300000Y-103220000D02*
X111140000Y-103220000D01*
X121270000Y-96170000D02*
X125110000Y-96170000D01*
X121270000Y-94330000D02*
X125110000Y-94330000D01*
X64120000Y-115220000D02*
X67960000Y-115220000D01*
X64120000Y-113380000D02*
X67960000Y-113380000D01*
X156830000Y-84740000D02*
X160670000Y-84740000D01*
X156830000Y-82900000D02*
X160670000Y-82900000D01*
X146670000Y-116490000D02*
X150510000Y-116490000D01*
X146670000Y-114650000D02*
X150510000Y-114650000D01*
X122540000Y-107600000D02*
X126380000Y-107600000D01*
X122540000Y-105760000D02*
X126380000Y-105760000D01*
X140320000Y-127920000D02*
X144160000Y-127920000D01*
X140320000Y-126080000D02*
X144160000Y-126080000D01*
X114920000Y-86010000D02*
X118760000Y-86010000D01*
X114920000Y-84170000D02*
X118760000Y-84170000D01*
X67310000Y-85090000D02*
X77470000Y-85090000D01*
X67310000Y-77470000D02*
X67310000Y-85090000D01*
X77470000Y-77470000D02*
X67310000Y-77470000D01*
X77470000Y-85090000D02*
X77470000Y-77470000D01*
X77470000Y-83820000D02*
X67310000Y-83820000D01*
X102870000Y-119380000D02*
X113030000Y-119380000D01*
X102870000Y-111760000D02*
X102870000Y-119380000D01*
X113030000Y-111760000D02*
X102870000Y-111760000D01*
X113030000Y-119380000D02*
X113030000Y-111760000D01*
X113030000Y-118110000D02*
X102870000Y-118110000D01*
X101600000Y-64770000D02*
X111760000Y-64770000D01*
X101600000Y-57150000D02*
X101600000Y-64770000D01*
X111760000Y-57150000D02*
X101600000Y-57150000D01*
X111760000Y-64770000D02*
X111760000Y-57150000D01*
X111760000Y-63500000D02*
X101600000Y-63500000D01*
X135640000Y-68730000D02*
X135640000Y-70970000D01*
X135880000Y-68730000D02*
X135880000Y-70970000D01*
X135760000Y-68730000D02*
X135760000Y-70970000D01*
X139930000Y-69850000D02*
X139280000Y-69850000D01*
X134390000Y-69850000D02*
X135040000Y-69850000D01*
X139280000Y-68730000D02*
X135040000Y-68730000D01*
X139280000Y-70970000D02*
X139280000Y-68730000D01*
X135040000Y-70970000D02*
X139280000Y-70970000D01*
X135040000Y-68730000D02*
X135040000Y-70970000D01*
X82300000Y-120800000D02*
X82300000Y-123040000D01*
X82540000Y-120800000D02*
X82540000Y-123040000D01*
X82420000Y-120800000D02*
X82420000Y-123040000D01*
X86590000Y-121920000D02*
X85940000Y-121920000D01*
X81050000Y-121920000D02*
X81700000Y-121920000D01*
X85940000Y-120800000D02*
X81700000Y-120800000D01*
X85940000Y-123040000D02*
X85940000Y-120800000D01*
X81700000Y-123040000D02*
X85940000Y-123040000D01*
X81700000Y-120800000D02*
X81700000Y-123040000D01*
X133100000Y-115720000D02*
X133100000Y-117960000D01*
X133340000Y-115720000D02*
X133340000Y-117960000D01*
X133220000Y-115720000D02*
X133220000Y-117960000D01*
X137390000Y-116840000D02*
X136740000Y-116840000D01*
X131850000Y-116840000D02*
X132500000Y-116840000D01*
X136740000Y-115720000D02*
X132500000Y-115720000D01*
X136740000Y-117960000D02*
X136740000Y-115720000D01*
X132500000Y-117960000D02*
X136740000Y-117960000D01*
X132500000Y-115720000D02*
X132500000Y-117960000D01*
X75950000Y-64920000D02*
X75950000Y-67160000D01*
X76190000Y-64920000D02*
X76190000Y-67160000D01*
X76070000Y-64920000D02*
X76070000Y-67160000D01*
X80240000Y-66040000D02*
X79590000Y-66040000D01*
X74700000Y-66040000D02*
X75350000Y-66040000D01*
X79590000Y-64920000D02*
X75350000Y-64920000D01*
X79590000Y-67160000D02*
X79590000Y-64920000D01*
X75350000Y-67160000D02*
X79590000Y-67160000D01*
X75350000Y-64920000D02*
X75350000Y-67160000D01*
D13*
X95398333Y-71664333D02*
X95398333Y-72797666D01*
X95465000Y-72931000D01*
X95531666Y-72997666D01*
X95665000Y-73064333D01*
X95931666Y-73064333D01*
X96065000Y-72997666D01*
X96131666Y-72931000D01*
X96198333Y-72797666D01*
X96198333Y-71664333D01*
X97598333Y-73064333D02*
X96798333Y-73064333D01*
X97198333Y-73064333D02*
X97198333Y-71664333D01*
X97065000Y-71864333D01*
X96931666Y-71997666D01*
X96798333Y-72064333D01*
D14*
X142867142Y-91242380D02*
X142533809Y-90766190D01*
X142295714Y-91242380D02*
X142295714Y-90242380D01*
X142676666Y-90242380D01*
X142771904Y-90290000D01*
X142819523Y-90337619D01*
X142867142Y-90432857D01*
X142867142Y-90575714D01*
X142819523Y-90670952D01*
X142771904Y-90718571D01*
X142676666Y-90766190D01*
X142295714Y-90766190D01*
X143819523Y-91242380D02*
X143248095Y-91242380D01*
X143533809Y-91242380D02*
X143533809Y-90242380D01*
X143438571Y-90385238D01*
X143343333Y-90480476D01*
X143248095Y-90528095D01*
X144438571Y-90242380D02*
X144533809Y-90242380D01*
X144629047Y-90290000D01*
X144676666Y-90337619D01*
X144724285Y-90432857D01*
X144771904Y-90623333D01*
X144771904Y-90861428D01*
X144724285Y-91051904D01*
X144676666Y-91147142D01*
X144629047Y-91194761D01*
X144533809Y-91242380D01*
X144438571Y-91242380D01*
X144343333Y-91194761D01*
X144295714Y-91147142D01*
X144248095Y-91051904D01*
X144200476Y-90861428D01*
X144200476Y-90623333D01*
X144248095Y-90432857D01*
X144295714Y-90337619D01*
X144343333Y-90290000D01*
X144438571Y-90242380D01*
X147153333Y-77272380D02*
X146820000Y-76796190D01*
X146581904Y-77272380D02*
X146581904Y-76272380D01*
X146962857Y-76272380D01*
X147058095Y-76320000D01*
X147105714Y-76367619D01*
X147153333Y-76462857D01*
X147153333Y-76605714D01*
X147105714Y-76700952D01*
X147058095Y-76748571D01*
X146962857Y-76796190D01*
X146581904Y-76796190D01*
X147629523Y-77272380D02*
X147820000Y-77272380D01*
X147915238Y-77224761D01*
X147962857Y-77177142D01*
X148058095Y-77034285D01*
X148105714Y-76843809D01*
X148105714Y-76462857D01*
X148058095Y-76367619D01*
X148010476Y-76320000D01*
X147915238Y-76272380D01*
X147724761Y-76272380D01*
X147629523Y-76320000D01*
X147581904Y-76367619D01*
X147534285Y-76462857D01*
X147534285Y-76700952D01*
X147581904Y-76796190D01*
X147629523Y-76843809D01*
X147724761Y-76891428D01*
X147915238Y-76891428D01*
X148010476Y-76843809D01*
X148058095Y-76796190D01*
X148105714Y-76700952D01*
X109053333Y-102672380D02*
X108720000Y-102196190D01*
X108481904Y-102672380D02*
X108481904Y-101672380D01*
X108862857Y-101672380D01*
X108958095Y-101720000D01*
X109005714Y-101767619D01*
X109053333Y-101862857D01*
X109053333Y-102005714D01*
X109005714Y-102100952D01*
X108958095Y-102148571D01*
X108862857Y-102196190D01*
X108481904Y-102196190D01*
X109624761Y-102100952D02*
X109529523Y-102053333D01*
X109481904Y-102005714D01*
X109434285Y-101910476D01*
X109434285Y-101862857D01*
X109481904Y-101767619D01*
X109529523Y-101720000D01*
X109624761Y-101672380D01*
X109815238Y-101672380D01*
X109910476Y-101720000D01*
X109958095Y-101767619D01*
X110005714Y-101862857D01*
X110005714Y-101910476D01*
X109958095Y-102005714D01*
X109910476Y-102053333D01*
X109815238Y-102100952D01*
X109624761Y-102100952D01*
X109529523Y-102148571D01*
X109481904Y-102196190D01*
X109434285Y-102291428D01*
X109434285Y-102481904D01*
X109481904Y-102577142D01*
X109529523Y-102624761D01*
X109624761Y-102672380D01*
X109815238Y-102672380D01*
X109910476Y-102624761D01*
X109958095Y-102577142D01*
X110005714Y-102481904D01*
X110005714Y-102291428D01*
X109958095Y-102196190D01*
X109910476Y-102148571D01*
X109815238Y-102100952D01*
X123023333Y-93782380D02*
X122690000Y-93306190D01*
X122451904Y-93782380D02*
X122451904Y-92782380D01*
X122832857Y-92782380D01*
X122928095Y-92830000D01*
X122975714Y-92877619D01*
X123023333Y-92972857D01*
X123023333Y-93115714D01*
X122975714Y-93210952D01*
X122928095Y-93258571D01*
X122832857Y-93306190D01*
X122451904Y-93306190D01*
X123356666Y-92782380D02*
X124023333Y-92782380D01*
X123594761Y-93782380D01*
X65873333Y-112832380D02*
X65540000Y-112356190D01*
X65301904Y-112832380D02*
X65301904Y-111832380D01*
X65682857Y-111832380D01*
X65778095Y-111880000D01*
X65825714Y-111927619D01*
X65873333Y-112022857D01*
X65873333Y-112165714D01*
X65825714Y-112260952D01*
X65778095Y-112308571D01*
X65682857Y-112356190D01*
X65301904Y-112356190D01*
X66730476Y-111832380D02*
X66540000Y-111832380D01*
X66444761Y-111880000D01*
X66397142Y-111927619D01*
X66301904Y-112070476D01*
X66254285Y-112260952D01*
X66254285Y-112641904D01*
X66301904Y-112737142D01*
X66349523Y-112784761D01*
X66444761Y-112832380D01*
X66635238Y-112832380D01*
X66730476Y-112784761D01*
X66778095Y-112737142D01*
X66825714Y-112641904D01*
X66825714Y-112403809D01*
X66778095Y-112308571D01*
X66730476Y-112260952D01*
X66635238Y-112213333D01*
X66444761Y-112213333D01*
X66349523Y-112260952D01*
X66301904Y-112308571D01*
X66254285Y-112403809D01*
X158583333Y-82352380D02*
X158250000Y-81876190D01*
X158011904Y-82352380D02*
X158011904Y-81352380D01*
X158392857Y-81352380D01*
X158488095Y-81400000D01*
X158535714Y-81447619D01*
X158583333Y-81542857D01*
X158583333Y-81685714D01*
X158535714Y-81780952D01*
X158488095Y-81828571D01*
X158392857Y-81876190D01*
X158011904Y-81876190D01*
X159488095Y-81352380D02*
X159011904Y-81352380D01*
X158964285Y-81828571D01*
X159011904Y-81780952D01*
X159107142Y-81733333D01*
X159345238Y-81733333D01*
X159440476Y-81780952D01*
X159488095Y-81828571D01*
X159535714Y-81923809D01*
X159535714Y-82161904D01*
X159488095Y-82257142D01*
X159440476Y-82304761D01*
X159345238Y-82352380D01*
X159107142Y-82352380D01*
X159011904Y-82304761D01*
X158964285Y-82257142D01*
X148423333Y-114102380D02*
X148090000Y-113626190D01*
X147851904Y-114102380D02*
X147851904Y-113102380D01*
X148232857Y-113102380D01*
X148328095Y-113150000D01*
X148375714Y-113197619D01*
X148423333Y-113292857D01*
X148423333Y-113435714D01*
X148375714Y-113530952D01*
X148328095Y-113578571D01*
X148232857Y-113626190D01*
X147851904Y-113626190D01*
X149280476Y-113435714D02*
X149280476Y-114102380D01*
X149042380Y-113054761D02*
X148804285Y-113769047D01*
X149423333Y-113769047D01*
X124293333Y-105212380D02*
X123960000Y-104736190D01*
X123721904Y-105212380D02*
X123721904Y-104212380D01*
X124102857Y-104212380D01*
X124198095Y-104260000D01*
X124245714Y-104307619D01*
X124293333Y-104402857D01*
X124293333Y-104545714D01*
X124245714Y-104640952D01*
X124198095Y-104688571D01*
X124102857Y-104736190D01*
X123721904Y-104736190D01*
X124626666Y-104212380D02*
X125245714Y-104212380D01*
X124912380Y-104593333D01*
X125055238Y-104593333D01*
X125150476Y-104640952D01*
X125198095Y-104688571D01*
X125245714Y-104783809D01*
X125245714Y-105021904D01*
X125198095Y-105117142D01*
X125150476Y-105164761D01*
X125055238Y-105212380D01*
X124769523Y-105212380D01*
X124674285Y-105164761D01*
X124626666Y-105117142D01*
X142073333Y-125532380D02*
X141740000Y-125056190D01*
X141501904Y-125532380D02*
X141501904Y-124532380D01*
X141882857Y-124532380D01*
X141978095Y-124580000D01*
X142025714Y-124627619D01*
X142073333Y-124722857D01*
X142073333Y-124865714D01*
X142025714Y-124960952D01*
X141978095Y-125008571D01*
X141882857Y-125056190D01*
X141501904Y-125056190D01*
X142454285Y-124627619D02*
X142501904Y-124580000D01*
X142597142Y-124532380D01*
X142835238Y-124532380D01*
X142930476Y-124580000D01*
X142978095Y-124627619D01*
X143025714Y-124722857D01*
X143025714Y-124818095D01*
X142978095Y-124960952D01*
X142406666Y-125532380D01*
X143025714Y-125532380D01*
X116673333Y-83622380D02*
X116340000Y-83146190D01*
X116101904Y-83622380D02*
X116101904Y-82622380D01*
X116482857Y-82622380D01*
X116578095Y-82670000D01*
X116625714Y-82717619D01*
X116673333Y-82812857D01*
X116673333Y-82955714D01*
X116625714Y-83050952D01*
X116578095Y-83098571D01*
X116482857Y-83146190D01*
X116101904Y-83146190D01*
X117625714Y-83622380D02*
X117054285Y-83622380D01*
X117340000Y-83622380D02*
X117340000Y-82622380D01*
X117244761Y-82765238D01*
X117149523Y-82860476D01*
X117054285Y-82908095D01*
X72056666Y-75652380D02*
X72056666Y-76366666D01*
X72009047Y-76509523D01*
X71913809Y-76604761D01*
X71770952Y-76652380D01*
X71675714Y-76652380D01*
X72437619Y-75652380D02*
X73056666Y-75652380D01*
X72723333Y-76033333D01*
X72866190Y-76033333D01*
X72961428Y-76080952D01*
X73009047Y-76128571D01*
X73056666Y-76223809D01*
X73056666Y-76461904D01*
X73009047Y-76557142D01*
X72961428Y-76604761D01*
X72866190Y-76652380D01*
X72580476Y-76652380D01*
X72485238Y-76604761D01*
X72437619Y-76557142D01*
X107616666Y-109942380D02*
X107616666Y-110656666D01*
X107569047Y-110799523D01*
X107473809Y-110894761D01*
X107330952Y-110942380D01*
X107235714Y-110942380D01*
X108045238Y-110037619D02*
X108092857Y-109990000D01*
X108188095Y-109942380D01*
X108426190Y-109942380D01*
X108521428Y-109990000D01*
X108569047Y-110037619D01*
X108616666Y-110132857D01*
X108616666Y-110228095D01*
X108569047Y-110370952D01*
X107997619Y-110942380D01*
X108616666Y-110942380D01*
X106346666Y-55332380D02*
X106346666Y-56046666D01*
X106299047Y-56189523D01*
X106203809Y-56284761D01*
X106060952Y-56332380D01*
X105965714Y-56332380D01*
X107346666Y-56332380D02*
X106775238Y-56332380D01*
X107060952Y-56332380D02*
X107060952Y-55332380D01*
X106965714Y-55475238D01*
X106870476Y-55570476D01*
X106775238Y-55618095D01*
X136421904Y-68182380D02*
X136421904Y-67182380D01*
X136660000Y-67182380D01*
X136802857Y-67230000D01*
X136898095Y-67325238D01*
X136945714Y-67420476D01*
X136993333Y-67610952D01*
X136993333Y-67753809D01*
X136945714Y-67944285D01*
X136898095Y-68039523D01*
X136802857Y-68134761D01*
X136660000Y-68182380D01*
X136421904Y-68182380D01*
X137850476Y-67515714D02*
X137850476Y-68182380D01*
X137612380Y-67134761D02*
X137374285Y-67849047D01*
X137993333Y-67849047D01*
X133088095Y-68502380D02*
X133088095Y-67502380D01*
X133659523Y-68502380D02*
X133230952Y-67930952D01*
X133659523Y-67502380D02*
X133088095Y-68073809D01*
X83081904Y-120252380D02*
X83081904Y-119252380D01*
X83320000Y-119252380D01*
X83462857Y-119300000D01*
X83558095Y-119395238D01*
X83605714Y-119490476D01*
X83653333Y-119680952D01*
X83653333Y-119823809D01*
X83605714Y-120014285D01*
X83558095Y-120109523D01*
X83462857Y-120204761D01*
X83320000Y-120252380D01*
X83081904Y-120252380D01*
X83986666Y-119252380D02*
X84605714Y-119252380D01*
X84272380Y-119633333D01*
X84415238Y-119633333D01*
X84510476Y-119680952D01*
X84558095Y-119728571D01*
X84605714Y-119823809D01*
X84605714Y-120061904D01*
X84558095Y-120157142D01*
X84510476Y-120204761D01*
X84415238Y-120252380D01*
X84129523Y-120252380D01*
X84034285Y-120204761D01*
X83986666Y-120157142D01*
X79748095Y-120572380D02*
X79748095Y-119572380D01*
X80319523Y-120572380D02*
X79890952Y-120000952D01*
X80319523Y-119572380D02*
X79748095Y-120143809D01*
X133881904Y-115172380D02*
X133881904Y-114172380D01*
X134120000Y-114172380D01*
X134262857Y-114220000D01*
X134358095Y-114315238D01*
X134405714Y-114410476D01*
X134453333Y-114600952D01*
X134453333Y-114743809D01*
X134405714Y-114934285D01*
X134358095Y-115029523D01*
X134262857Y-115124761D01*
X134120000Y-115172380D01*
X133881904Y-115172380D01*
X134834285Y-114267619D02*
X134881904Y-114220000D01*
X134977142Y-114172380D01*
X135215238Y-114172380D01*
X135310476Y-114220000D01*
X135358095Y-114267619D01*
X135405714Y-114362857D01*
X135405714Y-114458095D01*
X135358095Y-114600952D01*
X134786666Y-115172380D01*
X135405714Y-115172380D01*
X130548095Y-115492380D02*
X130548095Y-114492380D01*
X131119523Y-115492380D02*
X130690952Y-114920952D01*
X131119523Y-114492380D02*
X130548095Y-115063809D01*
X76731904Y-64372380D02*
X76731904Y-63372380D01*
X76970000Y-63372380D01*
X77112857Y-63420000D01*
X77208095Y-63515238D01*
X77255714Y-63610476D01*
X77303333Y-63800952D01*
X77303333Y-63943809D01*
X77255714Y-64134285D01*
X77208095Y-64229523D01*
X77112857Y-64324761D01*
X76970000Y-64372380D01*
X76731904Y-64372380D01*
X78255714Y-64372380D02*
X77684285Y-64372380D01*
X77970000Y-64372380D02*
X77970000Y-63372380D01*
X77874761Y-63515238D01*
X77779523Y-63610476D01*
X77684285Y-63658095D01*
X73398095Y-64692380D02*
X73398095Y-63692380D01*
X73969523Y-64692380D02*
X73540952Y-64120952D01*
X73969523Y-63692380D02*
X73398095Y-64263809D01*
M02*
